<?xml version="1.0" standalone="no"?>
<!DOCTYPE svg PUBLIC "-//W3C//DTD SVG 20010904//EN"
 "http://www.w3.org/TR/2001/REC-SVG-20010904/DTD/svg10.dtd">
<svg version="1.0" xmlns="http://www.w3.org/2000/svg"
 width="200.000000pt" height="200.000000pt" viewBox="0 0 160.000000 160.000000"
 preserveAspectRatio="xMidYMid meet">
<metadata>
Created by potrace 1.16, written by Peter Selinger 2001-2019
</metadata>
<g transform="translate(0.000000,160.000000) scale(0.026230,-0.026230)"
fill="currentColor" stroke="none">
<path d="M260 5125 l0 -595 -125 0 -125 0 0 -45 0 -44 122 -3 123 -3 3 -357 2
-358 -115 0 -115 0 0 -45 0 -45 115 0 115 0 0 -390 0 -390 -115 0 -115 0 0
-45 0 -44 113 -3 112 -3 3 -387 2 -388 -115 0 -115 0 0 -45 0 -44 113 -3 112
-3 3 -782 2 -783 2816 0 2815 0 -3 45 -3 45 -2765 3 -2765 2 0 735 0 735 95 1
95 2 3 46 3 45 -98 3 -98 3 0 385 0 385 98 3 97 3 0 44 0 44 -97 3 -98 3 0
385 0 385 98 3 97 3 0 44 0 44 -97 3 -98 3 0 355 0 355 108 3 107 3 0 44 0 44
-107 3 -108 3 -3 593 -2 592 -45 0 -45 0 0 -595z"/>
<path d="M4585 4839 c-374 -309 -722 -595 -772 -636 l-93 -75 -512 411 c-282
226 -515 411 -518 411 -4 0 -341 -309 -749 -686 l-742 -687 32 -33 c32 -33 33
-34 53 -15 24 21 1323 1217 1376 1267 l35 32 510 -409 c280 -225 515 -408 520
-407 6 2 372 300 812 662 l802 659 -26 34 c-14 18 -30 33 -37 32 -6 0 -317
-252 -691 -560z"/>
<path d="M4700 2410 l0 -1700 393 2 392 3 3 1698 2 1697 -395 0 -395 0 0
-1700z m690 0 l0 -1600 -295 0 -295 0 0 1600 0 1600 295 0 295 0 0 -1600z"/>
<path d="M2300 2150 l0 -1440 390 0 390 0 0 1440 0 1440 -390 0 -390 0 0
-1440z m680 0 l0 -1340 -290 0 -290 0 0 1340 0 1340 290 0 290 0 0 -1340z"/>
<path d="M1180 1955 l0 -1245 395 0 395 0 0 1245 0 1245 -395 0 -395 0 0
-1245z m690 0 l0 -1145 -295 0 -295 0 0 1145 0 1145 295 0 295 0 0 -1145z"/>
<path d="M3500 1715 l0 -1005 390 0 390 0 0 1005 0 1005 -390 0 -390 0 0
-1005z m690 0 l0 -905 -295 0 -295 0 0 905 0 905 295 0 295 0 0 -905z"/>
</g>
</svg>
